<?xml version="1.0" standalone="no"?>
<!DOCTYPE svg PUBLIC "-//W3C//DTD SVG 20010904//EN"
 "http://www.w3.org/TR/2001/REC-SVG-20010904/DTD/svg10.dtd">
<svg version="1.0" xmlns="http://www.w3.org/2000/svg"
 width="2556.000000pt" height="2556.000000pt" viewBox="0 0 2556.000000 2556.000000"
 preserveAspectRatio="xMidYMid meet">
<metadata>
Created by potrace 1.11, written by Peter Selinger 2001-2013
</metadata>
<g transform="translate(0.000000,2556.000000) scale(0.100000,-0.100000)"
fill="#000000" stroke="none">
<path d="M12245 24249 c-2078 -96 -4086 -756 -5815 -1910 -878 -586 -1671
-1290 -2359 -2094 -304 -355 -570 -705 -830 -1095 -526 -788 -951 -1636 -1269
-2530 -604 -1699 -797 -3564 -556 -5370 168 -1258 539 -2463 1108 -3600 549
-1096 1227 -2043 2091 -2919 630 -638 1253 -1147 1970 -1608 2217 -1426 4847
-2041 7475 -1747 2448 273 4737 1328 6535 3010 193 180 573 569 729 744 895
1007 1593 2127 2091 3360 828 2048 1042 4326 614 6520 -366 1872 -1208 3638
-2441 5117 -414 497 -914 1002 -1403 1417 -1841 1560 -4103 2493 -6500 2681
-437 34 -1015 44 -1440 24z m4680 -6099 l4078 -3745 -164 -6 c-90 -3 -433 -7
-761 -8 l-597 -1 -3311 3085 -3311 3084 -1002 -918 c-551 -505 -2064 -1891
-3362 -3079 l-2360 -2162 -770 0 -770 0 30 29 c133 132 8203 7471 8211 7469 6
-2 1846 -1688 4089 -3748z m-3779 -2390 c326 -26 654 -85 963 -175 730 -212
1404 -601 1932 -1116 135 -131 163 -182 163 -289 0 -90 -28 -154 -94 -214 -62
-56 -113 -76 -195 -76 -130 0 -161 17 -356 198 -642 596 -1381 943 -2264 1063
-216 30 -682 37 -895 15 -526 -55 -1018 -195 -1426 -405 -400 -206 -690 -409
-1001 -704 -147 -140 -180 -159 -289 -165 -101 -5 -165 13 -226 67 -103 91
-131 238 -68 361 32 63 353 358 558 514 543 410 1212 710 1887 845 179 36 400
68 545 80 153 12 616 13 766 1z m5452 -1083 l490 -469 6 -161 c11 -340 26
-6639 16 -7146 l-10 -504 -41 -76 c-167 -312 -549 -595 -1018 -755 l-133 -46
-1782 0 c-979 -1 -3284 -5 -5120 -10 l-3339 -8 -85 24 c-517 150 -931 556
-1076 1057 -61 210 -59 173 -57 1327 1 580 6 2238 12 3685 9 2477 11 2631 27
2647 9 10 256 217 547 461 l530 444 3 -2622 2 -2622 2072 -6 c1139 -4 3497 -7
5240 -7 l3168 0 0 2651 0 2650 29 -23 c15 -13 249 -234 519 -491z m-5418 -112
c515 -65 999 -233 1415 -490 329 -203 653 -483 721 -622 23 -46 26 -63 22
-121 -9 -121 -68 -210 -172 -258 -40 -19 -68 -24 -131 -24 -114 0 -150 20
-338 189 -87 78 -181 160 -210 183 -204 162 -607 370 -866 447 -834 248 -1703
122 -2406 -349 -138 -92 -231 -168 -375 -304 -149 -141 -202 -171 -305 -170
-125 0 -237 70 -286 178 -13 28 -19 64 -19 117 0 111 24 151 173 296 418 403
946 699 1487 832 446 110 910 144 1290 96z m-120 -1186 c478 -57 985 -308
1295 -642 93 -100 119 -160 112 -258 -11 -161 -137 -273 -307 -273 -108 0
-147 21 -286 154 -281 267 -589 407 -969 440 -318 28 -683 -58 -935 -220 -84
-55 -235 -176 -326 -262 -92 -88 -145 -112 -244 -112 -217 1 -353 194 -283
399 20 61 142 191 293 312 460 370 1046 534 1650 462z m-80 -1275 c103 -35
176 -82 251 -162 269 -285 184 -746 -171 -921 -413 -204 -893 78 -893 524 0
409 413 693 813 559z"/>
<path d="M12560 8986 c-512 -91 -918 -429 -1074 -897 -47 -140 -61 -233 -61
-399 0 -211 33 -358 121 -548 80 -175 258 -387 423 -505 164 -119 372 -207
571 -243 127 -23 353 -23 480 0 199 36 407 124 571 243 105 75 261 237 332
344 175 265 248 586 202 889 -44 293 -174 541 -391 750 -185 178 -412 297
-674 355 -101 23 -398 29 -500 11z"/>
</g>
</svg>
